# Blender v2.82 (sub 7) OBJ File: 'arrow.blend'
# www.blender.org
mtllib arrow.mtl
o Cube
v 0.634864 0.152854 -0.221557
v 0.634864 -0.152854 -0.221557
v 0.634864 0.152854 0.221557
v 0.634864 -0.152854 0.221557
v -0.634864 0.152854 -0.221557
v -0.634864 -0.152854 -0.221557
v -0.634864 0.152854 0.221557
v -0.634864 -0.152854 0.221557
v 1.228842 0.152854 -0.221557
v 1.228842 -0.152854 -0.221557
v 1.228842 0.152854 0.221557
v 1.228842 -0.152854 0.221557
v 0.634864 0.152854 -0.616289
v 0.634864 -0.152854 -0.616289
v 0.634864 0.152854 0.616289
v 0.634864 -0.152854 0.616289
v 1.228842 0.152854 -0.221557
v 0.807239 0.152854 -0.616289
v 0.807239 -0.152854 -0.616289
v 1.228842 -0.152854 -0.221557
v 0.807239 0.152854 0.616289
v 1.228842 0.152854 0.221557
v 1.228842 -0.152854 0.221557
v 0.807239 -0.152854 0.616289
v 1.340212 0.152854 -0.113857
v 1.340212 -0.152854 -0.113857
v 1.340212 0.152854 0.113857
v 1.340212 -0.152854 0.113857
vt 0.625000 0.500000
vt 0.875000 0.500000
vt 0.875000 0.750000
vt 0.625000 0.750000
vt 0.375000 0.750000
vt 0.625000 1.000000
vt 0.375000 1.000000
vt 0.375000 0.000000
vt 0.625000 0.000000
vt 0.625000 0.250000
vt 0.375000 0.250000
vt 0.125000 0.500000
vt 0.375000 0.500000
vt 0.125000 0.750000
vt 0.625000 0.750000
vt 0.625000 0.500000
vt 0.375000 0.750000
vt 0.375000 0.500000
vt 0.375000 0.500000
vt 0.375000 0.560764
vt 0.375000 0.689237
vt 0.375000 0.750000
vt 0.375000 0.750000
vt 0.375000 0.750000
vt 0.625000 0.750000
vt 0.625000 0.750000
vt 0.625000 0.750000
vt 0.625000 0.500000
vt 0.625000 0.500000
vt 0.625000 0.500000
vt 0.375000 0.500000
vt 0.375000 0.500000
vt 0.625000 0.689237
vt 0.625000 0.560764
vn 0.0000 1.0000 0.0000
vn 0.0000 0.0000 1.0000
vn -1.0000 0.0000 0.0000
vn 0.0000 -1.0000 0.0000
vn 0.0000 0.0000 -1.0000
vn 0.6835 0.0000 -0.7300
vn 0.6835 0.0000 0.7300
vn 1.0000 0.0000 0.0000
vn 0.6952 0.0000 -0.7188
vn 0.6952 0.0000 0.7188
usemtl Material
s off
f 1/1/1 5/2/1 7/3/1 3/4/1
f 4/5/2 3/4/2 7/6/2 8/7/2
f 8/8/3 7/9/3 5/10/3 6/11/3
f 6/12/4 2/13/4 4/5/4 8/14/4
f 1/1/1 3/4/1 11/15/1 9/16/1
f 6/11/5 5/10/5 1/1/5 2/13/5
f 12/17/4 10/18/4 20/19/4 26/20/4 28/21/4 23/22/4
f 4/5/4 12/17/4 23/22/4 24/23/4 16/24/4
f 4/5/4 2/13/4 10/18/4 12/17/4
f 11/15/1 3/4/1 15/25/1 21/26/1 22/27/1
f 1/1/1 9/16/1 17/28/1 18/29/1 13/30/1
f 14/31/5 13/30/5 18/29/5 19/32/5
f 12/17/2 11/15/2 22/27/2 23/22/2
f 10/18/4 2/13/4 14/31/4 19/32/4 20/19/4
f 3/4/3 4/5/3 16/24/3 15/25/3
f 2/13/3 1/1/3 13/30/3 14/31/3
f 15/25/2 16/24/2 24/23/2 21/26/2
f 17/28/6 20/19/6 19/32/6 18/29/6
f 21/26/7 24/23/7 23/22/7 22/27/7
f 9/16/2 10/18/2 20/19/2 17/28/2
f 9/16/1 11/15/1 22/27/1 27/33/1 25/34/1 17/28/1
f 26/20/8 25/34/8 27/33/8 28/21/8
f 25/34/9 26/20/9 20/19/9 17/28/9
f 22/27/10 23/22/10 28/21/10 27/33/10
