# Blender v2.82 (sub 7) OBJ File: ''
# www.blender.org
mtllib crops_dirtRowCorner.mtl
o crops_dirtRowCorner
v -0.217000 0.050000 -0.500000
v -0.174634 0.000000 -0.110500
v -0.120940 0.050000 -0.141500
v -0.279000 0.000000 -0.500000
v 0.279000 0.000000 -0.500000
v 0.306707 0.050000 -0.306707
v 0.349054 0.000000 -0.349054
v 0.217000 0.050000 -0.500000
v 0.500000 0.050000 0.217000
v 0.110500 -0.000000 0.174634
v 0.500000 -0.000000 0.279000
v 0.141500 0.050000 0.120940
v 0.500000 0.000000 -0.279000
v 0.500000 0.050000 -0.217000
v -0.217000 0.050000 -1.000000
v -0.279000 0.000000 -1.000000
v 0.279000 0.000000 -1.000000
v 0.217000 0.050000 -1.000000
v 1.000000 0.050000 0.217000
v 1.000000 -0.000000 0.279000
v 1.000000 0.000000 -0.279000
v 1.000000 0.050000 -0.217000
vt 0.000000 0.000000
vt 0.000000 0.000000
vt 0.000000 0.000000
vt 0.000000 0.000000
vt 0.000000 0.000000
vt 0.000000 0.000000
vt 0.000000 0.000000
vt 0.000000 0.000000
vt -21.225460 -1.162063
vt -5.981628 -4.233561
vt -6.613391 -1.162063
vt -21.857220 -4.233561
vt 13.231680 -13.639290
vt 5.869689 -10.676640
vt 6.680111 -13.639290
vt 14.259250 -10.676640
vt 21.225460 -1.162063
vt 5.981628 -4.233561
vt 21.857220 -4.233561
vt 6.613391 -1.162063
vt -7.306034 1.700963
vt 7.937797 -1.370534
vt 7.306034 1.700963
vt -7.937797 -1.370534
vt -13.231680 -13.639290
vt -5.869689 -10.676640
vt -14.259250 -10.676640
vt -6.680111 -13.639290
vt -14.259250 -10.676640
vt -13.231680 -13.639290
vt 13.231680 -13.639290
vt 14.259250 -10.676640
vt 21.857220 -4.233561
vt 21.225460 -1.162063
vt -21.225460 -1.162063
vt -21.857220 -4.233561
vt -19.685040 -8.543307
vt -5.570866 4.761426
vt -19.685040 8.543307
vt -12.075090 -12.075090
vt -8.543307 -19.685040
vt 8.543307 -19.685040
vt 4.761426 -5.570866
vt 8.543307 1.968504
vt -10.984250 -0.000000
vt 10.984250 -0.000000
vt -8.543307 1.968504
vt 8.543307 1.968504
vt -10.984250 -0.000000
vt 10.984250 -0.000000
vt -8.543307 1.968504
vt -8.543307 -19.685040
vt 8.543307 -19.685040
vt -19.685040 8.543307
vt -19.685040 -8.543307
vn 0.0000 -1.0000 -0.0000
vn -0.6191 0.7676 0.1659
vn 0.6027 0.7473 -0.2797
vn -0.1659 0.7676 0.6191
vn -0.4532 0.7676 0.4532
vn 0.2797 0.7473 -0.6027
vn 0.0000 0.7784 -0.6278
vn 0.0000 0.9430 -0.3329
vn 0.3329 0.9430 0.0000
vn 0.6278 0.7784 0.0000
vn 0.0000 0.9430 0.3329
vn 0.0000 0.7784 0.6278
vn -0.6278 0.7784 0.0000
vn -0.3329 0.9430 0.0000
vn 0.0000 1.0000 0.0000
vn 0.0000 0.0000 -1.0000
vn 1.0000 0.0000 0.0000
usemtl dirtDark
s off
f 5/1/1 4/2/1 16/3/1 17/4/1
f 11/5/1 13/6/1 21/7/1 20/8/1
s 1
f 1/9/2 2/10/2 3/11/2
f 2/10/2 1/9/2 4/12/2
f 5/13/3 6/14/3 7/15/3
f 6/14/3 5/13/3 8/16/3
f 9/17/4 10/18/4 11/19/4
f 10/18/4 9/17/4 12/20/4
f 3/21/5 10/22/5 12/23/5
f 10/22/5 3/21/5 2/24/5
f 13/25/6 6/26/6 14/27/6
f 6/26/6 13/25/6 7/28/6
f 13/25/7 14/27/8 22/29/8 21/30/7
f 8/16/9 5/13/10 17/31/10 18/32/9
f 9/17/11 11/19/12 20/33/12 19/34/11
f 4/12/13 1/9/14 15/35/14 16/36/13
usemtl dirt
f 14/37/15 12/38/15 9/39/15
f 12/38/15 14/37/15 6/40/15
f 12/38/15 6/40/15 8/41/15
f 12/38/15 8/41/15 1/42/15
f 12/38/15 1/42/15 3/43/15
f 15/44/16 17/45/16 16/46/16
f 17/45/16 15/44/16 18/47/16
f 22/48/17 20/49/17 21/50/17
f 20/49/17 22/48/17 19/51/17
f 1/42/14 8/41/9 18/52/9 15/53/14
f 14/37/8 9/39/11 19/54/11 22/55/8
