# Blender v2.78 (sub 0) OBJ File: '19.blend'
# www.blender.org
mtllib Toolbox_01.mtl
o Tool_box_Cube.026
v 2.150391 3.410391 0.258003
v 2.105625 3.410391 0.276545
v 2.087083 3.410391 0.321311
v 2.105625 3.410391 0.366076
v 2.150391 3.410391 0.384619
v 2.195156 3.410391 0.366076
v 2.213699 3.410391 0.321311
v 2.195156 3.410391 0.276545
v 2.150391 2.581169 0.258003
v 2.105625 2.581169 0.276545
v 2.087083 2.581169 0.321311
v 2.105625 2.581169 0.366076
v 2.150391 2.581169 0.384619
v 2.195156 2.581169 0.366076
v 2.213699 2.581169 0.321311
v 2.195156 2.581169 0.276545
v 2.150391 2.517804 0.192119
v 2.105625 2.501622 0.201173
v 2.087083 2.462556 0.223032
v 2.105625 2.423491 0.244890
v 2.150391 2.407309 0.253945
v 2.195156 2.423491 0.244890
v 2.213699 2.462556 0.223032
v 2.195156 2.501622 0.201173
v 2.150391 3.656471 0.258003
v 2.105625 3.656471 0.276545
v 2.087083 3.656471 0.321311
v 2.105625 3.656471 0.366076
v 2.150391 3.656471 0.384619
v 2.195156 3.656471 0.366076
v 2.213699 3.656471 0.321311
v 2.195156 3.656471 0.276545
v 2.150391 3.668451 0.249320
v 2.105625 3.682175 0.261789
v 2.087083 3.715306 0.291893
v 2.105625 3.748438 0.321996
v 2.150391 3.762161 0.334466
v 2.195156 3.748438 0.321996
v 2.213699 3.715306 0.291893
v 2.195156 3.682175 0.261789
v 2.150391 3.679783 0.188634
v 2.105625 3.698325 0.188721
v 2.087083 3.743090 0.188930
v 2.105625 3.787855 0.189140
v 2.150391 3.806397 0.189227
v 2.195156 3.787855 0.189140
v 2.213699 3.743090 0.188930
v 2.195156 3.698325 0.188721
v 2.150391 3.410391 -0.258003
v 2.105625 3.410391 -0.276545
v 2.087083 3.410391 -0.321311
v 2.105625 3.410391 -0.366076
v 2.150391 3.410391 -0.384619
v 2.195156 3.410391 -0.366076
v 2.213699 3.410391 -0.321311
v 2.195156 3.410391 -0.276545
v 2.150391 2.581169 -0.258003
v 2.105625 2.581169 -0.276545
v 2.087083 2.581169 -0.321311
v 2.105625 2.581169 -0.366076
v 2.150391 2.581169 -0.384619
v 2.195156 2.581169 -0.366076
v 2.213699 2.581169 -0.321311
v 2.195156 2.581169 -0.276545
v 2.150391 2.517804 -0.192119
v 2.105625 2.501622 -0.201173
v 2.087083 2.462556 -0.223032
v 2.105625 2.423491 -0.244890
v 2.150391 2.407309 -0.253945
v 2.195156 2.423491 -0.244890
v 2.213699 2.462556 -0.223032
v 2.195156 2.501622 -0.201173
v 2.150391 2.451297 0.000000
v 2.105625 2.432758 0.000000
v 2.087083 2.388000 0.000000
v 2.105625 2.343241 0.000000
v 2.150391 2.324702 0.000000
v 2.195156 2.343241 0.000000
v 2.213699 2.388000 0.000000
v 2.195156 2.432758 0.000000
v 2.150391 3.656471 -0.258003
v 2.105625 3.656471 -0.276545
v 2.087083 3.656471 -0.321311
v 2.105625 3.656471 -0.366076
v 2.150391 3.656471 -0.384619
v 2.195156 3.656471 -0.366076
v 2.213699 3.656471 -0.321311
v 2.195156 3.656471 -0.276545
v 2.150391 3.668451 -0.249320
v 2.105625 3.682175 -0.261789
v 2.087083 3.715306 -0.291893
v 2.105625 3.748438 -0.321996
v 2.150391 3.762161 -0.334466
v 2.195156 3.748438 -0.321996
v 2.213699 3.715306 -0.291893
v 2.195156 3.682175 -0.261789
v 2.150391 3.679783 -0.188634
v 2.105625 3.698325 -0.188721
v 2.087083 3.743090 -0.188930
v 2.105625 3.787855 -0.189140
v 2.150391 3.806397 -0.189227
v 2.195156 3.787855 -0.189140
v 2.213699 3.743090 -0.188930
v 2.195156 3.698325 -0.188721
v -2.054453 -0.020936 4.964825
v -2.054453 4.110184 4.964825
v -2.054453 -0.020936 -4.964825
v -2.054453 4.110184 -4.964825
v 2.076667 -0.020936 4.964825
v 2.076667 4.110184 4.964825
v 2.076667 -0.020936 -4.964825
v 2.076667 4.110184 -4.964825
v -0.593061 5.226942 4.964825
v -0.593061 5.226942 -4.964825
v 0.615274 5.226942 -4.964825
v 0.615274 5.226942 4.964825
v -2.005295 3.472897 4.846667
v -2.005295 3.503159 4.846667
v 2.027508 3.503158 4.846667
v 2.027508 3.472897 4.846667
v -2.054453 3.503528 4.964825
v -2.054453 3.472528 4.964825
v -2.054453 3.472527 -4.964825
v -2.054453 3.503528 -4.964825
v 2.076667 3.472527 -4.964825
v 2.076667 3.503528 -4.964825
v 2.076667 3.472527 4.964825
v 2.076667 3.503528 4.964825
v 2.027508 3.472897 -4.846667
v 2.027508 3.503158 -4.846667
v -2.005295 3.472897 -4.846667
v -2.005295 3.503158 -4.846667
v -0.224137 5.583580 1.445122
v -0.224137 5.583580 -1.445122
v 0.246350 5.583580 -1.445122
v 0.246350 5.583580 1.445122
v -0.224137 5.498025 1.095874
v -0.224137 5.498025 -1.095874
v 0.246350 5.498025 -1.095874
v 0.246350 5.498025 1.095874
v -0.224137 5.836123 1.095874
v -0.224137 5.836123 -1.095874
v 0.246350 5.836123 -1.095874
v 0.246350 5.836123 1.095874
v -0.224137 5.041827 -1.095874
v -0.224137 5.041827 -1.445122
v 0.246350 5.041827 -1.445122
v 0.246350 5.041827 1.095874
v 0.246350 5.041827 1.445122
v -0.224137 5.041827 1.445122
v -0.224137 5.041827 1.095874
v 0.246350 5.041827 -1.095874
v 1.961483 2.576013 0.230816
v 1.961483 3.437383 0.230816
v 1.961483 2.576013 -0.230816
v 1.961483 3.437383 -0.230816
v 2.239492 2.576013 0.230816
v 2.239492 3.437383 0.230816
v 2.239492 2.576013 -0.230816
v 2.239492 3.437383 -0.230816
v 1.961483 3.564460 0.230817
v 1.961483 3.988001 0.230817
v 1.961483 3.564460 -0.230814
v 1.961483 3.988001 -0.230814
v 1.961483 2.482784 0.109535
v 1.961483 2.482784 -0.109535
v 1.961483 3.437383 -0.109535
v 1.961483 3.437383 0.109535
v 2.239492 2.482784 -0.109535
v 2.239492 2.482784 0.109535
v 2.239492 3.437383 0.109535
v 2.239492 3.437383 -0.109535
v 2.239492 3.988001 -0.230814
v 2.239492 3.564460 -0.230814
v 2.239492 3.988001 0.230817
v 2.239492 3.564460 0.230817
v 1.961483 4.081229 -0.109534
v 1.961483 4.081229 0.109537
v 1.961483 3.564460 0.109537
v 1.961483 3.564460 -0.109534
v 2.239492 4.081229 0.109537
v 2.239492 4.081229 -0.109534
v 2.239492 3.564460 -0.109534
v 2.239492 3.564460 0.109537
vn 0.3827 0.0000 -0.9239
vn 0.9239 0.0000 0.3827
vn -0.3827 0.0000 0.9239
vn -0.9239 0.0000 -0.3827
vn 0.9239 0.0000 -0.3827
vn 0.3827 0.0000 0.9239
vn -0.9239 0.0000 0.3827
vn -0.3827 0.0000 -0.9239
vn 0.8984 0.2895 -0.3303
vn 0.3344 -0.5701 0.7505
vn -0.8998 -0.2714 0.3417
vn -0.3272 0.6643 -0.6721
vn 0.3272 0.6643 -0.6721
vn 0.8998 -0.2714 0.3417
vn -0.3344 -0.5701 0.7505
vn -0.8984 0.2895 -0.3303
vn 0.9190 -0.3743 0.1238
vn -0.3714 -0.8826 0.2882
vn -0.9189 0.3736 -0.1263
vn 0.9189 0.3736 -0.1263
vn 0.3714 -0.8826 0.2882
vn -0.9190 -0.3743 0.1238
vn -0.3711 0.8780 -0.3022
vn 0.3711 0.8780 -0.3022
vn 0.3512 -0.4945 -0.7951
vn 0.9108 0.1809 0.3711
vn -0.3541 0.4025 0.8442
vn -0.9106 -0.1914 -0.3663
vn 0.9106 -0.1914 -0.3663
vn 0.3541 0.4025 0.8442
vn -0.9108 0.1809 0.3711
vn -0.3512 -0.4945 -0.7951
vn 0.3597 0.8935 0.2688
vn -0.9134 0.3915 0.1116
vn -0.3562 -0.9153 -0.1881
vn 0.3562 -0.9153 -0.1881
vn 0.9134 0.3914 0.1115
vn -0.3597 0.8935 0.2688
vn -0.9129 -0.3961 -0.0989
vn 0.9129 -0.3961 -0.0989
vn 0.8984 0.2895 0.3303
vn 0.3344 -0.5701 -0.7505
vn -0.8998 -0.2714 -0.3417
vn -0.3272 0.6643 0.6721
vn 0.3272 0.6643 0.6721
vn 0.8998 -0.2714 -0.3417
vn -0.3344 -0.5701 -0.7505
vn -0.8984 0.2895 0.3303
vn 0.9190 -0.3743 -0.1238
vn -0.3714 -0.8826 -0.2882
vn -0.9189 0.3736 0.1263
vn 0.9189 0.3736 0.1263
vn 0.3714 -0.8826 -0.2882
vn -0.9190 -0.3743 -0.1238
vn -0.3711 0.8780 0.3022
vn 0.3711 0.8780 0.3022
vn 0.3512 -0.4945 0.7951
vn 0.9108 0.1809 -0.3711
vn -0.3541 0.4025 -0.8442
vn -0.9106 -0.1914 0.3663
vn 0.9106 -0.1914 0.3663
vn 0.3541 0.4025 -0.8442
vn -0.9108 0.1809 -0.3711
vn -0.3512 -0.4945 0.7951
vn 0.3597 0.8935 -0.2688
vn -0.9134 0.3915 -0.1116
vn -0.3562 -0.9153 0.1881
vn 0.3562 -0.9153 0.1881
vn 0.9134 0.3914 -0.1115
vn -0.3597 0.8935 -0.2688
vn -0.9129 -0.3961 0.0989
vn 0.9129 -0.3961 0.0989
vn 0.0000 0.0000 1.0000
vn 0.0000 1.0000 0.0031
vn 0.0075 -1.0000 0.0000
vn 0.0000 1.0000 -0.0031
vn -0.0075 1.0000 0.0000
vn 1.0000 0.0000 0.0000
vn 0.0000 0.0000 -1.0000
vn -1.0000 0.0000 0.0000
vn -0.0000 -1.0000 0.0031
vn -0.0075 -1.0000 0.0000
vn 0.0000 -1.0000 -0.0031
vn 0.0075 1.0000 0.0000
vn 0.0000 0.8103 0.5860
vn 0.0000 1.0000 0.0000
vn 0.0000 -1.0000 0.0000
vn 0.0000 0.8103 -0.5860
vn -0.0000 -0.7928 0.6094
vn -0.0000 -0.7928 -0.6094
vn 0.0000 0.7928 -0.6094
vn 0.0000 0.7928 0.6094
vn 0.6072 0.7946 0.0000
vn -0.6072 0.7946 0.0000
usemtl 455A64
s off
f 8//1 16//1 9//1 1//1
f 6//2 14//2 15//2 7//2
f 4//3 12//3 13//3 5//3
f 2//4 10//4 11//4 3//4
f 7//5 15//5 16//5 8//5
f 5//6 13//6 14//6 6//6
f 3//7 11//7 12//7 4//7
f 1//8 9//8 10//8 2//8
f 15//9 23//9 24//9 16//9
f 13//10 21//10 22//10 14//10
f 11//11 19//11 20//11 12//11
f 9//12 17//12 18//12 10//12
f 16//13 24//13 17//13 9//13
f 14//14 22//14 23//14 15//14
f 12//15 20//15 21//15 13//15
f 10//16 18//16 19//16 11//16
f 22//17 78//17 79//17 23//17
f 20//18 76//18 77//18 21//18
f 18//19 74//19 75//19 19//19
f 23//20 79//20 80//20 24//20
f 21//21 77//21 78//21 22//21
f 19//22 75//22 76//22 20//22
f 17//23 73//23 74//23 18//23
f 24//24 80//24 73//24 17//24
f 8//5 32//5 31//5 7//5
f 6//6 30//6 29//6 5//6
f 4//7 28//7 27//7 3//7
f 2//8 26//8 25//8 1//8
f 1//1 25//1 32//1 8//1
f 7//2 31//2 30//2 6//2
f 5//3 29//3 28//3 4//3
f 3//4 27//4 26//4 2//4
f 25//25 33//25 40//25 32//25
f 31//26 39//26 38//26 30//26
f 29//27 37//27 36//27 28//27
f 27//28 35//28 34//28 26//28
f 32//29 40//29 39//29 31//29
f 30//30 38//30 37//30 29//30
f 28//31 36//31 35//31 27//31
f 26//32 34//32 33//32 25//32
f 38//33 46//33 45//33 37//33
f 36//34 44//34 43//34 35//34
f 34//35 42//35 41//35 33//35
f 33//36 41//36 48//36 40//36
f 39//37 47//37 46//37 38//37
f 37//38 45//38 44//38 36//38
f 35//39 43//39 42//39 34//39
f 40//40 48//40 47//40 39//40
f 56//6 49//6 57//6 64//6
f 54//5 55//5 63//5 62//5
f 52//8 53//8 61//8 60//8
f 50//7 51//7 59//7 58//7
f 55//2 56//2 64//2 63//2
f 53//1 54//1 62//1 61//1
f 51//4 52//4 60//4 59//4
f 49//3 50//3 58//3 57//3
f 63//41 64//41 72//41 71//41
f 61//42 62//42 70//42 69//42
f 59//43 60//43 68//43 67//43
f 57//44 58//44 66//44 65//44
f 64//45 57//45 65//45 72//45
f 62//46 63//46 71//46 70//46
f 60//47 61//47 69//47 68//47
f 58//48 59//48 67//48 66//48
f 70//49 71//49 79//49 78//49
f 68//50 69//50 77//50 76//50
f 66//51 67//51 75//51 74//51
f 71//52 72//52 80//52 79//52
f 69//53 70//53 78//53 77//53
f 67//54 68//54 76//54 75//54
f 65//55 66//55 74//55 73//55
f 72//56 65//56 73//56 80//56
f 56//2 55//2 87//2 88//2
f 54//1 53//1 85//1 86//1
f 52//4 51//4 83//4 84//4
f 50//3 49//3 81//3 82//3
f 49//6 56//6 88//6 81//6
f 55//5 54//5 86//5 87//5
f 53//8 52//8 84//8 85//8
f 51//7 50//7 82//7 83//7
f 81//57 88//57 96//57 89//57
f 87//58 86//58 94//58 95//58
f 85//59 84//59 92//59 93//59
f 83//60 82//60 90//60 91//60
f 88//61 87//61 95//61 96//61
f 86//62 85//62 93//62 94//62
f 84//63 83//63 91//63 92//63
f 82//64 81//64 89//64 90//64
f 94//65 93//65 101//65 102//65
f 92//66 91//66 99//66 100//66
f 90//67 89//67 97//67 98//67
f 89//68 96//68 104//68 97//68
f 95//69 94//69 102//69 103//69
f 93//70 92//70 100//70 101//70
f 91//71 90//71 98//71 99//71
f 96//72 95//72 103//72 104//72
f 119//73 118//73 117//73 120//73
f 122//74 127//74 120//74 117//74
f 126//75 128//75 119//75 130//75
f 125//76 123//76 131//76 129//76
f 123//77 122//77 117//77 131//77
f 130//78 119//78 120//78 129//78
f 132//79 130//79 129//79 131//79
f 118//80 132//80 131//80 117//80
f 128//81 121//81 118//81 119//81
f 121//82 124//82 132//82 118//82
f 124//83 126//83 130//83 132//83
f 127//84 125//84 129//84 120//84
f 138//80 134//80 146//80 145//80
f 139//78 135//78 143//78
f 137//80 133//80 141//80
f 133//85 136//85 144//85 141//85
f 134//80 138//80 142//80
f 138//80 137//80 141//80 142//80
f 136//78 140//78 144//78
f 140//78 139//78 143//78 144//78
f 143//86 142//86 141//86 144//86
f 140//78 136//78 149//78 148//78
f 139//87 140//87 137//87 138//87
f 148//87 149//87 150//87 151//87
f 147//87 152//87 145//87 146//87
f 137//79 140//79 148//79 151//79
f 135//78 139//78 152//78 147//78
f 136//73 133//73 150//73 149//73
f 133//80 137//80 151//80 150//80
f 134//79 135//79 147//79 146//79
f 139//73 138//73 145//73 152//73
f 142//88 143//88 135//88 134//88
f 171//86 168//86 154//86 158//86
f 155//79 156//79 160//79 159//79
f 183//87 180//87 163//87 174//87
f 157//73 158//73 154//73 153//73
f 166//80 167//80 156//80 155//80
f 160//86 156//86 167//86 172//86
f 159//78 160//78 172//78 169//78
f 165//89 170//89 157//89 153//89
f 170//78 171//78 158//78 157//78
f 155//90 159//90 169//90 166//90
f 168//86 171//86 172//86 167//86
f 170//87 165//87 166//87 169//87
f 171//78 170//78 169//78 172//78
f 167//80 166//80 165//80 168//80
f 153//80 154//80 168//80 165//80
f 162//73 161//73 176//73 175//73
f 173//79 174//79 163//79 164//79
f 178//80 179//80 161//80 162//80
f 176//87 161//87 179//87 184//87
f 175//78 176//78 184//78 181//78
f 177//91 182//91 173//91 164//91
f 182//78 183//78 174//78 173//78
f 162//92 175//92 181//92 178//92
f 180//87 183//87 184//87 179//87
f 182//86 177//86 178//86 181//86
f 183//78 182//78 181//78 184//78
f 179//80 178//80 177//80 180//80
f 164//80 163//80 180//80 177//80
usemtl F44336
f 109//73 127//73 122//73 105//73
f 107//79 123//79 125//79 111//79
f 111//78 125//78 127//78 109//78
f 105//80 122//80 123//80 107//80
f 107//87 111//87 109//87 105//87
f 110//93 112//93 115//93 116//93
f 115//86 114//86 113//86 116//86
f 108//94 106//94 113//94 114//94
f 106//73 110//73 116//73 113//73
f 112//79 108//79 114//79 115//79
f 128//73 110//73 106//73 121//73
f 126//78 112//78 110//78 128//78
f 124//79 108//79 112//79 126//79
f 121//80 106//80 108//80 124//80
